<svg width="23" height="26" viewBox="0 0 23 26" fill="none" xmlns="http://www.w3.org/2000/svg">
<path d="M16.5035 0C16.564 0 16.6245 0 16.6885 0C16.8369 1.83357 16.137 3.20362 15.2864 4.19576C14.4519 5.18105 13.309 6.13665 11.4606 5.99166C11.3373 4.18434 12.0383 2.91591 12.8877 1.92605C13.6755 1.00356 15.1198 0.182672 16.5035 0Z" fill="#7C7C7C"/>
<path d="M22.099 19.0847C22.099 19.103 22.099 19.119 22.099 19.1361C21.5795 20.7093 20.8385 22.0577 19.9343 23.309C19.1089 24.445 18.0973 25.9737 16.2911 25.9737C14.7304 25.9737 13.6938 24.9702 12.0942 24.9428C10.4022 24.9154 9.47175 25.7819 7.92474 26C7.74778 26 7.57082 26 7.39728 26C6.26128 25.8356 5.3445 24.9359 4.6766 24.1253C2.70716 21.73 1.18527 18.636 0.90213 14.6766C0.90213 14.2884 0.90213 13.9014 0.90213 13.5132C1.02201 10.6795 2.3989 8.37553 4.22905 7.25894C5.19493 6.66526 6.52273 6.15948 8.00124 6.38554C8.63488 6.48373 9.28223 6.70065 9.84966 6.91529C10.3874 7.12194 11.0599 7.48842 11.6969 7.46901C12.1285 7.45646 12.5578 7.23154 12.9928 7.07284C14.2669 6.61274 15.5159 6.08527 17.1623 6.33302C19.1408 6.63215 20.5451 7.51126 21.4128 8.8676C19.7391 9.93281 18.4159 11.538 18.6419 14.2793C18.8428 16.7693 20.2905 18.2261 22.099 19.0847Z" fill="#7C7C7C"/>
</svg>
