<svg width="16" height="16" viewBox="0 0 16 16" fill="none" xmlns="http://www.w3.org/2000/svg">
<path d="M7.37467 11.9583H8.62467V8.625H11.958V7.375H8.62467V4.04167H7.37467V7.375H4.04134V8.625H7.37467V11.9583ZM7.99967 15.9167C6.90245 15.9167 5.87134 15.7083 4.90634 15.2917C3.94079 14.875 3.10384 14.3125 2.39551 13.6042C1.68717 12.8958 1.12467 12.0589 0.708008 11.0933C0.291341 10.1283 0.0830078 9.09722 0.0830078 8C0.0830078 6.90278 0.291341 5.87139 0.708008 4.90583C1.12467 3.94083 1.68717 3.10417 2.39551 2.39583C3.10384 1.6875 3.94079 1.125 4.90634 0.708332C5.87134 0.291665 6.90245 0.0833321 7.99967 0.0833321C9.0969 0.0833321 10.1283 0.291665 11.0938 0.708332C12.0588 1.125 12.8955 1.6875 13.6038 2.39583C14.3122 3.10417 14.8747 3.94083 15.2913 4.90583C15.708 5.87139 15.9163 6.90278 15.9163 8C15.9163 9.09722 15.708 10.1283 15.2913 11.0933C14.8747 12.0589 14.3122 12.8958 13.6038 13.6042C12.8955 14.3125 12.0588 14.875 11.0938 15.2917C10.1283 15.7083 9.0969 15.9167 7.99967 15.9167ZM7.99967 14.6667C9.86079 14.6667 11.4372 14.0208 12.7288 12.7292C14.0205 11.4375 14.6663 9.86111 14.6663 8C14.6663 6.13889 14.0205 4.5625 12.7288 3.27083C11.4372 1.97917 9.86079 1.33333 7.99967 1.33333C6.13856 1.33333 4.56217 1.97917 3.27051 3.27083C1.97884 4.5625 1.33301 6.13889 1.33301 8C1.33301 9.86111 1.97884 11.4375 3.27051 12.7292C4.56217 14.0208 6.13856 14.6667 7.99967 14.6667Z" fill="#353454"/>
</svg>
