<svg width="22" height="22" viewBox="0 0 22 22" fill="none" xmlns="http://www.w3.org/2000/svg">
<path d="M7.10004 16.0375L11 12.1375L14.9 16.0375L16.0375 14.9L12.1375 11L16.0375 7.09998L14.9 5.96248L11 9.86248L7.10004 5.96248L5.96254 7.09998L9.86254 11L5.96254 14.9L7.10004 16.0375ZM11 21.2916C9.57365 21.2916 8.23321 21.0208 6.97871 20.4791C5.72349 19.9375 4.63546 19.2062 3.71462 18.2854C2.79379 17.3646 2.06254 16.2765 1.52087 15.0213C0.979207 13.7668 0.708374 12.4264 0.708374 11C0.708374 9.57359 0.979207 8.23279 1.52087 6.97756C2.06254 5.72306 2.79379 4.6354 3.71462 3.71456C4.63546 2.79373 5.72349 2.06248 6.97871 1.52081C8.23321 0.979146 9.57365 0.708313 11 0.708313C12.4264 0.708313 13.7672 0.979146 15.0225 1.52081C16.277 2.06248 17.3646 2.79373 18.2855 3.71456C19.2063 4.6354 19.9375 5.72306 20.4792 6.97756C21.0209 8.23279 21.2917 9.57359 21.2917 11C21.2917 12.4264 21.0209 13.7668 20.4792 15.0213C19.9375 16.2765 19.2063 17.3646 18.2855 18.2854C17.3646 19.2062 16.277 19.9375 15.0225 20.4791C13.7672 21.0208 12.4264 21.2916 11 21.2916ZM11 19.6666C13.4195 19.6666 15.4688 18.8271 17.148 17.1479C18.8271 15.4687 19.6667 13.4194 19.6667 11C19.6667 8.58054 18.8271 6.53123 17.148 4.85206C15.4688 3.1729 13.4195 2.33331 11 2.33331C8.5806 2.33331 6.53129 3.1729 4.85212 4.85206C3.17296 6.53123 2.33337 8.58054 2.33337 11C2.33337 13.4194 3.17296 15.4687 4.85212 17.1479C6.53129 18.8271 8.5806 19.6666 11 19.6666Z" fill="white"/>
</svg>
