<svg width="14" height="14" viewBox="0 0 14 14" fill="none" xmlns="http://www.w3.org/2000/svg">
<path d="M3.99828 9.12682L2.5901 7.71867C2.31417 7.44335 1.94842 7.29167 1.55878 7.29167H0.583424C0.422424 7.29167 0.291748 7.42235 0.291748 7.58335C0.291748 7.74435 0.422424 7.875 0.583424 7.875H1.55875C1.78857 7.875 2.01432 7.96832 2.17707 8.13107L3.08765 9.04164H0.583424C0.422424 9.04164 0.291748 9.17232 0.291748 9.33332C0.291748 9.49432 0.422424 9.625 0.583424 9.625H3.79175C3.90957 9.625 4.01575 9.55382 4.06125 9.44475C4.10675 9.33567 4.08167 9.21025 3.99828 9.12682Z" fill="#353454"/>
<path d="M3.7916 10.5C3.6306 10.5 3.49993 10.6307 3.49993 10.7917V11.6667C3.49993 11.8277 3.36868 11.9584 3.20825 11.9584H1.45825C1.29783 11.9584 1.16658 11.8277 1.16658 11.6667V10.5C1.16658 10.339 1.0359 10.2083 0.8749 10.2083C0.7139 10.2083 0.583252 10.339 0.583252 10.5V11.6667C0.583252 12.1491 0.975826 12.5417 1.45825 12.5417H3.20825C3.69068 12.5417 4.08325 12.1491 4.08325 11.6667V10.7917C4.08325 10.6307 3.9526 10.5 3.7916 10.5Z" fill="#353454"/>
<path d="M12.6764 5.57493C11.8726 5.15436 10.0684 4.95836 7 4.95836C3.93165 4.95836 2.12743 5.15436 1.32357 5.57493C0.40775 6.05326 0 6.85243 0 8.16668C0 9.43018 0.289324 10.5292 0.301574 10.5753C0.335398 10.703 0.450898 10.7917 0.583324 10.7917H3.1395L4.24432 11.3441C4.28515 11.3645 4.33007 11.375 4.375 11.375H9.625C9.66993 11.375 9.71482 11.3645 9.75507 11.3441L10.8605 10.7917H13.4167C13.5491 10.7917 13.6646 10.703 13.6984 10.5753C13.7107 10.5292 14 9.43018 14 8.16668C14 6.85243 13.5922 6.05326 12.6764 5.57493ZM13.1862 10.2083H10.7922C10.7467 10.2083 10.7018 10.2188 10.6616 10.2393L9.55615 10.7917H4.44382L3.339 10.2393C3.29818 10.2188 3.25325 10.2083 3.20832 10.2083H0.814324C0.73325 9.83676 0.583324 9.03408 0.583324 8.16666C0.583324 7.06823 0.876148 6.46683 1.59307 6.09173C2.2919 5.72655 4.11075 5.54166 7 5.54166C9.88925 5.54166 11.7081 5.72658 12.4069 6.09173C13.1239 6.4668 13.4167 7.06823 13.4167 8.16666C13.4167 9.03408 13.2667 9.83676 13.1862 10.2083Z" fill="#353454"/>
<path d="M13.4166 9.04167H10.9124L11.8224 8.1311C11.9857 7.96835 12.2109 7.87502 12.4413 7.87502H13.4166C13.5776 7.87502 13.7083 7.74435 13.7083 7.58335C13.7083 7.42235 13.5776 7.29167 13.4166 7.29167H12.4413C12.0516 7.29167 11.6859 7.44335 11.41 7.71867L10.0018 9.12685C9.91896 9.21027 9.89386 9.33567 9.93879 9.44477C9.98371 9.55388 10.0905 9.62502 10.2083 9.62502H13.4166C13.5776 9.62502 13.7083 9.49435 13.7083 9.33335C13.7083 9.17232 13.5776 9.04167 13.4166 9.04167Z" fill="#353454"/>
<path d="M10.4727 7.45967C10.4243 7.357 10.3216 7.29167 10.2084 7.29167H3.79178C3.67861 7.29167 3.57596 7.357 3.52753 7.45967C3.47971 7.56175 3.49486 7.6831 3.56778 7.77L5.02611 9.52C5.08153 9.5865 5.16378 9.625 5.25011 9.625H8.7501C8.83643 9.625 8.91868 9.5865 8.9741 9.52L10.4324 7.77C10.5054 7.68307 10.5205 7.56175 10.4727 7.45967ZM8.61303 9.04167H5.38661L4.41418 7.875H9.58543L8.61303 9.04167Z" fill="#353454"/>
<path d="M12.8095 5.71725C12.4775 4.95425 11.3669 2.4395 10.9807 2.11108C10.4995 1.70215 9.12103 1.45833 7.29171 1.45833H6.70838C4.87906 1.45833 3.50063 1.70215 3.01938 2.1105C2.63321 2.43893 1.52196 4.95368 1.19063 5.71668C1.12706 5.86486 1.19471 6.03636 1.34231 6.1005C1.48931 6.16468 1.66199 6.09758 1.72613 5.94943C2.38471 4.43336 3.19031 2.74868 3.39738 2.55561C3.62196 2.36486 4.57221 2.04168 6.70838 2.04168H7.29171C9.42788 2.04168 10.3781 2.36486 10.6015 2.55443C10.8098 2.74868 11.6154 4.43275 12.274 5.94943C12.3218 6.05968 12.4297 6.125 12.5417 6.125C12.5802 6.125 12.6205 6.11743 12.6578 6.10108C12.8054 6.03693 12.873 5.86483 12.8095 5.71725Z" fill="#353454"/>
<path d="M13.1249 10.2083C12.9639 10.2083 12.8332 10.339 12.8332 10.5V11.6667C12.8332 11.8277 12.702 11.9584 12.5415 11.9584H10.7915C10.6311 11.9584 10.4999 11.8277 10.4999 11.6667V10.7917C10.4999 10.6307 10.3692 10.5 10.2082 10.5C10.0472 10.5 9.9165 10.6307 9.9165 10.7917V11.6667C9.9165 12.1491 10.3091 12.5417 10.7915 12.5417H12.5415C13.0239 12.5417 13.4165 12.1491 13.4165 11.6667V10.5C13.4166 10.339 13.2859 10.2083 13.1249 10.2083Z" fill="#353454"/>
</svg>
