<svg width="18" height="18" viewBox="0 0 18 18" fill="none" xmlns="http://www.w3.org/2000/svg">
<path d="M14.8333 17.2333H3.16666C1.8433 17.2333 0.766656 16.1567 0.766656 14.8333V3.16666C0.766656 1.84331 1.8433 0.766664 3.16666 0.766664H14.8333C16.1567 0.766664 17.2333 1.84331 17.2333 3.16666V14.8333C17.2333 16.1567 16.1567 17.2333 14.8333 17.2333ZM8.61823 11.7432L12.7849 7.57657C13.1495 7.21199 13.1495 6.62133 12.7849 6.25676C12.4203 5.89219 11.8297 5.89219 11.4651 6.25676L7.95832 9.76352L6.53489 8.34009C6.17032 7.97552 5.57966 7.97552 5.21509 8.34009C4.85051 8.70467 4.85051 9.29533 5.21509 9.6599L7.29842 11.7432C7.48067 11.9255 7.71965 12.0167 7.95832 12.0167C8.197 12.0167 8.43597 11.9255 8.61823 11.7432Z" fill="#0A88FF" stroke="#FEF9EE" stroke-width="0.2"/>
</svg>
