<svg width="38" height="38" viewBox="0 0 38 38" fill="none" xmlns="http://www.w3.org/2000/svg">
<g clip-path="url(#clip0_410_7462)">
<path d="M26.125 5.9375C25.7272 5.95449 25.3308 5.99414 24.9375 6.05625V4.75C24.9364 3.80549 24.5608 2.89998 23.8929 2.23211C23.225 1.56425 22.3195 1.18857 21.375 1.1875H4.75C3.80549 1.18857 2.89998 1.56425 2.23211 2.23211C1.56425 2.89998 1.18857 3.80549 1.1875 4.75V33.25C1.18857 34.1945 1.56425 35.1 2.23211 35.7679C2.89998 36.4358 3.80549 36.8114 4.75 36.8125H21.375C22.3195 36.8114 23.225 36.4358 23.8929 35.7679C24.5608 35.1 24.9364 34.1945 24.9375 33.25V27.1937C25.3308 27.2559 25.7272 27.2955 26.125 27.3125C28.9595 27.3125 31.6779 26.1865 33.6822 24.1822C35.6865 22.1779 36.8125 19.4595 36.8125 16.625C36.8125 13.7905 35.6865 11.0721 33.6822 9.0678C31.6779 7.0635 28.9595 5.9375 26.125 5.9375ZM21.375 34.4375H4.75C4.43517 34.4371 4.13334 34.3119 3.91073 34.0893C3.68811 33.8667 3.56288 33.5648 3.5625 33.25V29.6875H22.5625V33.25C22.5621 33.5648 22.4369 33.8667 22.2143 34.0893C21.9917 34.3119 21.6898 34.4371 21.375 34.4375ZM22.5625 27.3125H3.5625V4.75C3.56288 4.43517 3.68811 4.13334 3.91073 3.91073C4.13334 3.68811 4.43517 3.56288 4.75 3.5625H21.375C21.6898 3.56288 21.9917 3.68811 22.2143 3.91073C22.4369 4.13334 22.5621 4.43517 22.5625 4.75V6.59395C20.4808 7.31996 18.6766 8.67561 17.3999 10.473C16.1232 12.2703 15.4373 14.4204 15.4373 16.625C15.4373 18.8296 16.1232 20.9797 17.3999 22.777C18.6766 24.5744 20.4808 25.93 22.5625 26.6561V27.3125ZM26.125 24.9375C24.4809 24.9375 22.8738 24.45 21.5068 23.5366C20.1398 22.6232 19.0744 21.325 18.4453 19.8061C17.8161 18.2871 17.6515 16.6158 17.9722 15.0033C18.293 13.3908 19.0847 11.9097 20.2472 10.7472C21.4097 9.58465 22.8908 8.79296 24.5033 8.47222C26.1158 8.15148 27.7871 8.3161 29.3061 8.94525C30.825 9.5744 32.1232 10.6398 33.0366 12.0068C33.95 13.3738 34.4375 14.9809 34.4375 16.625C34.4349 18.8288 33.5582 20.9416 31.9999 22.4999C30.4416 24.0582 28.3288 24.9349 26.125 24.9375V24.9375Z" fill="white" stroke="#75DCA5"/>
<path d="M28.848 13.4104L24.9376 17.3209L23.4021 15.7854C23.1782 15.5691 22.8782 15.4494 22.5668 15.4521C22.2555 15.4548 21.9576 15.5797 21.7375 15.7999C21.5173 16.0201 21.3924 16.3179 21.3897 16.6293C21.387 16.9406 21.5067 17.2406 21.723 17.4646L24.098 19.8396C24.3207 20.0622 24.6227 20.1872 24.9376 20.1872C25.2524 20.1872 25.5544 20.0622 25.7771 19.8396L30.5271 15.0896C30.7434 14.8656 30.8631 14.5656 30.8604 14.2543C30.8577 13.9429 30.7328 13.6451 30.5127 13.4249C30.2925 13.2047 29.9946 13.0798 29.6833 13.0771C29.3719 13.0744 29.072 13.1941 28.848 13.4104Z" fill="white"/>
</g>
<defs>
<clipPath id="clip0_410_7462">
<rect width="38" height="38" fill="white"/>
</clipPath>
</defs>
</svg>
