<svg width="20" height="14" viewBox="0 0 20 14" fill="none" xmlns="http://www.w3.org/2000/svg">
<path fill-rule="evenodd" clip-rule="evenodd" d="M9.99998 9.5C11.3807 9.5 12.5 8.38071 12.5 7C12.5 5.61929 11.3807 4.5 9.99998 4.5C8.61927 4.5 7.49998 5.61929 7.49998 7C7.49998 8.38071 8.61927 9.5 9.99998 9.5ZM9.99998 0.125C14.1638 0.28158 17.835 2.90106 19.3375 6.7875C19.3871 6.92482 19.3871 7.07518 19.3375 7.2125C17.835 11.0989 14.1638 13.7184 9.99998 13.875C5.83617 13.7184 2.16496 11.0989 0.662478 7.2125C0.612833 7.07518 0.612833 6.92482 0.662478 6.7875C2.16496 2.90106 5.83617 0.28158 9.99998 0.125ZM5.93748 7C5.93748 9.24366 7.75632 11.0625 9.99998 11.0625C12.2422 11.0591 14.059 9.24223 14.0625 7C14.0625 4.75634 12.2436 2.9375 9.99998 2.9375C7.75632 2.9375 5.93748 4.75634 5.93748 7Z" fill="#0A88FF"/>
</svg>
