<svg width="30" height="30" viewBox="0 0 30 30" fill="none" xmlns="http://www.w3.org/2000/svg">
<g clip-path="url(#clip0_1394_13618)">
<path d="M28.2199 17.0454C30.0376 14.657 30.033 15.3379 28.2199 12.9558C28.1114 12.8129 27.9426 12.7291 27.7629 12.7291L22.3086 12.7291L22.3086 12.4546C22.3086 12.1371 22.0514 11.8805 21.7345 11.8805L14.2673 11.8805C14.2495 11.1358 13.7672 10.4939 13.0518 10.2752L10.1903 9.40022C10.1358 9.38357 10.0795 9.37496 10.0227 9.37496L2.40446 9.37496C1.28776 9.37496 0.378906 10.2838 0.378906 11.4005L0.378906 18.6002C0.378906 19.7169 1.28776 20.6257 2.40446 20.6257L10.0227 20.6257C10.0795 20.6257 10.1364 20.6171 10.1903 20.6005L13.0518 19.7255C13.7678 19.5067 14.2495 18.8649 14.2673 18.1202L19.4379 18.1202C19.7549 18.1202 20.0121 17.8636 20.0121 17.5461L20.0121 17.2716L27.7629 17.2716C27.9426 17.2716 28.1114 17.1884 28.2199 17.0454ZM21.1603 13.0288L21.1603 13.3032C21.1603 13.6207 21.4176 13.8773 21.7345 13.8773L27.4781 13.8773L28.333 15.0003L27.4781 16.1234L19.4379 16.1234C19.121 16.1234 18.8638 16.38 18.8638 16.6975L18.8638 16.9719L14.2707 16.9719L14.2707 13.0293L21.1603 13.0293L21.1603 13.0288ZM13.1224 18.0783C13.1224 18.3321 12.9594 18.5525 12.7159 18.6272L9.93655 19.4769L2.40446 19.4769C1.92046 19.4769 1.52718 19.083 1.52718 18.5996L1.52718 11.4005C1.52718 10.9165 1.92104 10.5232 2.40446 10.5232L9.93655 10.5232L12.7165 11.3729C12.9594 11.4476 13.1224 11.6681 13.1224 11.9218L13.1224 18.0783Z" fill="white"/>
<path d="M2.90812 11.7591C2.5912 11.7591 2.33398 12.0158 2.33398 12.3333L2.33398 17.6676C2.33398 17.9851 2.5912 18.2417 2.90812 18.2417L4.77406 18.2417C5.09099 18.2417 5.3482 17.9851 5.3482 17.6676L5.3482 12.3333C5.3482 12.0158 5.09099 11.7591 4.77406 11.7591L2.90812 11.7591ZM4.19993 12.9074L4.19993 17.0934L3.48226 17.0934L3.48226 12.9074L4.19993 12.9074Z" fill="white"/>
<path d="M6.37598 14.0127L6.37598 15.9883C6.37598 16.5774 6.63147 17.136 7.07757 17.5212C7.5231 17.9065 8.11274 18.0782 8.69491 17.9926L10.0493 17.7951C11.0374 17.651 11.7826 16.7887 11.7826 15.7902L11.7826 14.2102C11.7826 13.2118 11.0374 12.3494 10.0487 12.2053L8.69491 12.0078C8.11216 11.9228 7.52253 12.0939 7.077 12.4792C6.63147 12.865 6.37598 13.4236 6.37598 14.0127ZM9.88338 13.3415C10.3117 13.4041 10.6343 13.7779 10.6343 14.2108L10.6343 15.7908C10.6343 16.2237 10.3111 16.5969 9.88338 16.66L9.65315 16.6933L9.65315 13.3082L9.88338 13.3415ZM8.50545 13.1435L8.50545 16.8581C8.258 16.888 8.01858 16.8168 7.82854 16.6532C7.63563 16.4861 7.52482 16.2438 7.52482 15.9889L7.52482 14.0133C7.52482 13.7584 7.63563 13.5161 7.82854 13.349C8.01801 13.1848 8.25742 13.1136 8.50545 13.1435Z" fill="white"/>
</g>
<defs>
<clipPath id="clip0_1394_13618">
<rect width="30" height="30" fill="white" transform="translate(0 30) rotate(-90)"/>
</clipPath>
</defs>
</svg>
