<svg width="22" height="22" viewBox="0 0 22 22" fill="none" xmlns="http://www.w3.org/2000/svg">
<path fill-rule="evenodd" clip-rule="evenodd" d="M11.0002 1.14575C5.56158 1.14575 1.146 5.56134 1.146 10.9999C1.146 16.4385 5.56158 20.8541 11.0002 20.8541C16.4387 20.8541 20.8543 16.4385 20.8543 10.9999C20.8543 5.56134 16.4387 1.14575 11.0002 1.14575ZM11.0002 2.52075C15.6797 2.52075 19.4793 6.32034 19.4793 10.9999C19.4793 15.6795 15.6797 19.4791 11.0002 19.4791C6.32058 19.4791 2.521 15.6795 2.521 10.9999C2.521 6.32034 6.32058 2.52075 11.0002 2.52075Z" fill="white"/>
<path fill-rule="evenodd" clip-rule="evenodd" d="M12.146 7.33325V14.6666C12.146 15.0461 12.454 15.3541 12.8335 15.3541C13.213 15.3541 13.521 15.0461 13.521 14.6666V7.33325C13.521 6.95375 13.213 6.64575 12.8335 6.64575C12.454 6.64575 12.146 6.95375 12.146 7.33325Z" fill="white"/>
<path fill-rule="evenodd" clip-rule="evenodd" d="M8.47949 7.33325V14.6666C8.47949 15.0461 8.78749 15.3541 9.16699 15.3541C9.54649 15.3541 9.85449 15.0461 9.85449 14.6666V7.33325C9.85449 6.95375 9.54649 6.64575 9.16699 6.64575C8.78749 6.64575 8.47949 6.95375 8.47949 7.33325Z" fill="white"/>
</svg>
