<svg width="21" height="21" viewBox="0 0 21 21" fill="none" xmlns="http://www.w3.org/2000/svg">
<g clip-path="url(#clip0_917_8178)">
<path d="M4.57681 13.3009C4.6332 14.7278 4.42865 14.4766 5.81544 14.8015C5.89856 14.8211 5.98588 14.8007 6.05183 14.7463L8.05325 13.0943L8.13637 13.195C8.23253 13.3115 8.40464 13.3278 8.52093 13.2318L11.261 10.9702C11.4931 11.238 11.8644 11.3275 12.1932 11.1911L13.5082 10.6455C13.5333 10.6351 13.5565 10.6212 13.5774 10.604L16.3728 8.29661C16.7826 7.95839 16.8408 7.34961 16.5026 6.93985L14.322 4.29798C13.9838 3.88821 13.375 3.82999 12.9652 4.16821L10.1698 6.47558C10.1489 6.4928 10.1307 6.51318 10.1159 6.53563L9.33092 7.72338C9.13446 8.02049 9.15211 8.40192 9.37112 8.68056L7.47377 10.2466C7.35748 10.3426 7.34083 10.5147 7.43699 10.6312L7.52011 10.7319L4.67599 13.0795C4.61005 13.1339 4.57332 13.2156 4.57681 13.3009ZM8.38382 12.6366L8.3007 12.5359C8.20454 12.4194 8.03243 12.4031 7.91614 12.4991L5.80854 14.2387L5.15471 14.0856L5.12827 13.4146L8.07857 10.9794C8.19486 10.8834 8.21152 10.7113 8.11536 10.5948L8.03223 10.4941L9.71764 9.10295L10.9118 10.5497L8.38365 12.6364L8.38382 12.6366ZM9.8039 8.3492C9.72704 8.25608 9.7201 8.12579 9.78682 8.02468L10.5493 6.87106L13.3132 4.58977C13.4908 4.44318 13.7544 4.46858 13.9008 4.64597L16.0812 7.28764C16.2278 7.46523 16.2024 7.72884 16.025 7.87526L13.2612 10.1565L11.9837 10.6867C11.872 10.7329 11.7454 10.7014 11.6685 10.6083L9.8039 8.3492Z" fill="#353454"/>
<path d="M15.4661 7.57424C15.5824 7.47826 15.5991 7.30618 15.5029 7.18968L13.8873 5.23229C13.7911 5.11579 13.619 5.09952 13.5027 5.19551L12.818 5.76066C12.7017 5.85665 12.6851 6.02872 12.7812 6.14522L14.3969 8.10261C14.493 8.21912 14.6651 8.23538 14.7814 8.1394L15.4661 7.57424ZM14.6443 7.54415L13.3765 6.00812L13.6398 5.79075L14.9077 7.32679L14.6443 7.54415Z" fill="#353454"/>
<path d="M13.5108 7.79783L12.9124 7.0729C12.734 6.85674 12.4711 6.72914 12.1907 6.72289C11.9105 6.71647 11.6421 6.83206 11.4544 7.03978L11.0173 7.52246C10.6983 7.87461 10.6861 8.41676 10.9885 8.78312L11.467 9.3629C11.7694 9.72927 12.3041 9.81999 12.7105 9.57343L13.2671 9.23586C13.5067 9.09054 13.6712 8.84917 13.718 8.57287C13.7646 8.29635 13.6892 8.01398 13.5108 7.79783ZM12.427 9.10642C12.2509 9.21318 12.0193 9.17376 11.8882 9.01491L11.4096 8.43513C11.2785 8.27628 11.2841 8.04144 11.4219 7.88871L11.4963 7.80676L12.5216 9.04891L12.427 9.10642ZM12.9927 8.76176L11.8676 7.39869C11.9493 7.31279 12.0587 7.2664 12.178 7.26888C12.2994 7.27176 12.4135 7.3271 12.4907 7.42064L13.089 8.14558C13.1662 8.23912 13.199 8.36158 13.1788 8.48132C13.159 8.59896 13.0927 8.69759 12.9927 8.76176Z" fill="#353454"/>
</g>
<defs>
<clipPath id="clip0_917_8178">
<rect width="14.2739" height="14.2739" fill="white" transform="translate(11.0083) rotate(50.4636)"/>
</clipPath>
</defs>
</svg>
