<svg width="10" height="12" viewBox="0 0 10 12" fill="none" xmlns="http://www.w3.org/2000/svg">
<path d="M5.00008 5.85417C5.28203 5.85417 5.52275 5.75461 5.72225 5.5555C5.92136 5.356 6.02091 5.11528 6.02091 4.83333C6.02091 4.55139 5.92136 4.31067 5.72225 4.11117C5.52275 3.91206 5.28203 3.8125 5.00008 3.8125C4.71814 3.8125 4.47741 3.91206 4.27791 4.11117C4.0788 4.31067 3.97925 4.55139 3.97925 4.83333C3.97925 5.11528 4.0788 5.356 4.27791 5.5555C4.47741 5.75461 4.71814 5.85417 5.00008 5.85417ZM5.00008 10.55C6.20564 9.48055 7.11466 8.45719 7.72716 7.47992C8.33966 6.50303 8.64591 5.65972 8.64591 4.95C8.64591 3.84167 8.29358 2.9375 7.58891 2.2375C6.88386 1.5375 6.02091 1.1875 5.00008 1.1875C3.97925 1.1875 3.1163 1.5375 2.41125 2.2375C1.70658 2.9375 1.35425 3.84167 1.35425 4.95C1.35425 5.65972 1.6605 6.50303 2.273 7.47992C2.8855 8.45719 3.79453 9.48055 5.00008 10.55ZM5.00008 11.7167C3.48341 10.3944 2.35078 9.16944 1.60216 8.04167C0.853554 6.91389 0.479248 5.88333 0.479248 4.95C0.479248 3.54028 0.933859 2.41483 1.84308 1.57367C2.75191 0.732889 3.80425 0.3125 5.00008 0.3125C6.19591 0.3125 7.24844 0.732889 8.15766 1.57367C9.0665 2.41483 9.52091 3.54028 9.52091 4.95C9.52091 5.88333 9.14661 6.91389 8.398 8.04167C7.64939 9.16944 6.51675 10.3944 5.00008 11.7167Z" fill="#353454"/>
</svg>
