<svg width="14" height="18" viewBox="0 0 14 18" fill="none" xmlns="http://www.w3.org/2000/svg">
<path fill-rule="evenodd" clip-rule="evenodd" d="M12 7.75H10.75V4C10.75 1.92893 9.07107 0.25 7 0.25C4.92893 0.25 3.25 1.92893 3.25 4V7.75H2C1.30964 7.75 0.75 8.30964 0.75 9V16.5C0.75 17.1904 1.30964 17.75 2 17.75H12C12.6904 17.75 13.25 17.1904 13.25 16.5V9C13.25 8.30964 12.6904 7.75 12 7.75ZM4.5 4C4.5 2.61929 5.61929 1.5 7 1.5C8.38071 1.5 9.5 2.61929 9.5 4V7.75H4.5V4ZM12 16.5H2V9H12V16.5Z" fill="#9E9E9E"/>
</svg>
