<svg width="14" height="14" viewBox="0 0 14 14" fill="none" xmlns="http://www.w3.org/2000/svg">
<g clip-path="url(#clip0_905_8507)">
<path d="M7.4375 6.125H6.5625V4.375C6.5625 4.22756 6.48812 4.08975 6.36431 4.00881C6.24094 3.92787 6.08475 3.91519 5.94956 3.97425C5.02294 4.37937 4.375 5.30469 4.375 6.38006C4.375 7.35131 4.90306 8.19963 5.6875 8.65375V9.625C5.6875 9.8665 5.8835 10.0625 6.125 10.0625C6.3665 10.0625 6.5625 9.8665 6.5625 9.625V8.38556C6.5625 8.21144 6.45969 8.05438 6.30044 7.98438C5.68225 7.71444 5.25 7.09756 5.25 6.38006C5.25 5.93688 5.41537 5.53175 5.6875 5.22287V6.125C5.6875 6.608 6.0795 7 6.5625 7H7.4375C7.9205 7 8.3125 6.608 8.3125 6.125V5.22331C8.58462 5.53131 8.75 5.93688 8.75 6.38006C8.75 7.09756 8.31775 7.71444 7.69956 7.98438C7.54031 8.05438 7.4375 8.21144 7.4375 8.38556V9.625C7.4375 9.8665 7.6335 10.0625 7.875 10.0625C8.1165 10.0625 8.3125 9.8665 8.3125 9.625V8.65331C9.09694 8.19963 9.625 7.35131 9.625 6.38006C9.625 5.30469 8.97706 4.37937 8.05044 3.97425C7.91525 3.91519 7.75906 3.92787 7.63569 4.00881C7.51187 4.08975 7.4375 4.22756 7.4375 4.375V6.125Z" fill="#353454"/>
<path d="M7.4375 6.125H6.5625V4.375C6.5625 4.22756 6.48812 4.08975 6.36431 4.00881C6.24094 3.92787 6.08475 3.91519 5.94956 3.97425C5.02294 4.37937 4.375 5.30469 4.375 6.38006C4.375 7.35131 4.90306 8.19963 5.6875 8.65375V9.625C5.6875 9.8665 5.8835 10.0625 6.125 10.0625C6.3665 10.0625 6.5625 9.8665 6.5625 9.625V8.38556C6.5625 8.21144 6.45969 8.05438 6.30044 7.98438C5.68225 7.71444 5.25 7.09756 5.25 6.38006C5.25 5.93688 5.41537 5.53175 5.6875 5.22287V6.125C5.6875 6.608 6.0795 7 6.5625 7H7.4375C7.9205 7 8.3125 6.608 8.3125 6.125V5.22331C8.58462 5.53131 8.75 5.93688 8.75 6.38006C8.75 7.09756 8.31775 7.71444 7.69956 7.98438C7.54031 8.05438 7.4375 8.21144 7.4375 8.38556V9.625C7.4375 9.8665 7.6335 10.0625 7.875 10.0625C8.1165 10.0625 8.3125 9.8665 8.3125 9.625V8.65331C9.09694 8.19963 9.625 7.35131 9.625 6.38006C9.625 5.30469 8.97706 4.37937 8.05044 3.97425C7.91525 3.91519 7.75906 3.92787 7.63569 4.00881C7.51187 4.08975 7.4375 4.22756 7.4375 4.375V6.125Z" stroke="white"/>
<path d="M8.54711 1.43062C8.55148 1.21887 8.40317 1.03425 8.19492 0.992687C7.40611 0.835625 6.59411 0.835625 5.8053 0.992687C5.59705 1.03425 5.44873 1.21887 5.45311 1.43062L5.46405 1.95694C5.13767 2.05625 4.82136 2.18706 4.52036 2.34762L4.15592 1.96831C4.00892 1.81519 3.77355 1.78937 3.59723 1.90706C2.9283 2.35419 2.3543 2.92819 1.90717 3.59712C1.78948 3.77344 1.8153 4.00881 1.96842 4.15581L2.34773 4.52025C2.18717 4.82125 2.05636 5.13756 1.95705 5.46394L1.43073 5.453C1.21898 5.44862 1.03436 5.59694 0.992797 5.80519C0.835734 6.594 0.835734 7.406 0.992797 8.19481C1.03436 8.40306 1.21898 8.55137 1.43073 8.547L1.95705 8.53606C2.05636 8.86244 2.18717 9.17875 2.34773 9.47975L1.96842 9.84419C1.8153 9.99119 1.78948 10.2266 1.90717 10.4029C2.3543 11.0718 2.9283 11.6458 3.59723 12.0929C3.77355 12.2106 4.00892 12.1848 4.15592 12.0317L4.52036 11.6524C4.82136 11.8129 5.13767 11.9437 5.46405 12.0431L5.45311 12.5694C5.44873 12.7811 5.59705 12.9657 5.8053 13.0073C6.59411 13.1644 7.40611 13.1644 8.19492 13.0073C8.40317 12.9657 8.55148 12.7811 8.54711 12.5694L8.53617 12.0431C8.86255 11.9437 9.17886 11.8129 9.47986 11.6524L9.8443 12.0317C9.9913 12.1848 10.2267 12.2106 10.403 12.0929C11.0719 11.6458 11.6459 11.0718 12.093 10.4029C12.2107 10.2266 12.1849 9.99119 12.0318 9.84419L11.6525 9.47975C11.813 9.17875 11.9439 8.86244 12.0432 8.53606L12.5695 8.547C12.7812 8.55137 12.9659 8.40306 13.0074 8.19481C13.1645 7.406 13.1645 6.594 13.0074 5.80519C12.9659 5.59694 12.7812 5.44862 12.5695 5.453L12.0432 5.46394C11.9439 5.13756 11.813 4.82125 11.6525 4.52025L12.0318 4.15581C12.1849 4.00881 12.2107 3.77344 12.093 3.59712C11.6459 2.92819 11.0719 2.35419 10.403 1.90706C10.2267 1.78937 9.9913 1.81519 9.8443 1.96831L9.47986 2.34762C9.17886 2.18706 8.86255 2.05625 8.53617 1.95694L8.54711 1.43062ZM7.66423 1.792L7.65417 2.28156C7.65023 2.4885 7.79111 2.67006 7.9928 2.71687C8.46486 2.82625 8.91548 3.01262 9.32673 3.269C9.50261 3.37881 9.73098 3.35037 9.87405 3.20075L10.2127 2.84769C10.5644 3.11981 10.8803 3.43569 11.1524 3.78744L10.7994 4.12606C10.6497 4.26912 10.6213 4.4975 10.7311 4.67337C10.9875 5.08462 11.1739 5.53525 11.2832 6.00731C11.33 6.209 11.5116 6.34987 11.7185 6.34594L12.2081 6.33587C12.2641 6.77688 12.2641 7.22312 12.2081 7.66412L11.7185 7.65406C11.5116 7.65013 11.33 7.791 11.2832 7.99269C11.1739 8.46475 10.9875 8.91537 10.7311 9.32662C10.6213 9.5025 10.6497 9.73088 10.7994 9.87394L11.1524 10.2126C10.8803 10.5643 10.5644 10.8802 10.2127 11.1523L9.87405 10.7992C9.73098 10.6496 9.50261 10.6212 9.32673 10.731C8.91548 10.9874 8.46486 11.1737 7.9928 11.2831C7.79111 11.3299 7.65023 11.5115 7.65417 11.7184L7.66423 12.208C7.22323 12.264 6.77698 12.264 6.33598 12.208L6.34605 11.7184C6.34998 11.5115 6.20911 11.3299 6.00742 11.2831C5.53536 11.1737 5.08473 10.9874 4.67348 10.731C4.49761 10.6212 4.26923 10.6496 4.12617 10.7992L3.78755 11.1523C3.4358 10.8802 3.11992 10.5643 2.8478 10.2126L3.20086 9.87394C3.35048 9.73088 3.37892 9.5025 3.26911 9.32662C3.01273 8.91537 2.82636 8.46475 2.71698 7.99269C2.67017 7.791 2.48861 7.65013 2.28167 7.65406L1.79211 7.66412C1.73611 7.22312 1.73611 6.77688 1.79211 6.33587L2.28167 6.34594C2.48861 6.34987 2.67017 6.209 2.71698 6.00731C2.82636 5.53525 3.01273 5.08462 3.26911 4.67337C3.37892 4.4975 3.35048 4.26912 3.20086 4.12606L2.8478 3.78744C3.11992 3.43569 3.4358 3.11981 3.78755 2.84769L4.12617 3.20075C4.26923 3.35037 4.49761 3.37881 4.67348 3.269C5.08473 3.01262 5.53536 2.82625 6.00742 2.71687C6.20911 2.67006 6.34998 2.4885 6.34605 2.28156L6.33598 1.792C6.77698 1.736 7.22323 1.736 7.66423 1.792Z" fill="#353454"/>
<path d="M8.54711 1.43062C8.55148 1.21887 8.40317 1.03425 8.19492 0.992687C7.40611 0.835625 6.59411 0.835625 5.8053 0.992687C5.59705 1.03425 5.44873 1.21887 5.45311 1.43062L5.46405 1.95694C5.13767 2.05625 4.82136 2.18706 4.52036 2.34762L4.15592 1.96831C4.00892 1.81519 3.77355 1.78937 3.59723 1.90706C2.9283 2.35419 2.3543 2.92819 1.90717 3.59712C1.78948 3.77344 1.8153 4.00881 1.96842 4.15581L2.34773 4.52025C2.18717 4.82125 2.05636 5.13756 1.95705 5.46394L1.43073 5.453C1.21898 5.44862 1.03436 5.59694 0.992797 5.80519C0.835734 6.594 0.835734 7.406 0.992797 8.19481C1.03436 8.40306 1.21898 8.55137 1.43073 8.547L1.95705 8.53606C2.05636 8.86244 2.18717 9.17875 2.34773 9.47975L1.96842 9.84419C1.8153 9.99119 1.78948 10.2266 1.90717 10.4029C2.3543 11.0718 2.9283 11.6458 3.59723 12.0929C3.77355 12.2106 4.00892 12.1848 4.15592 12.0317L4.52036 11.6524C4.82136 11.8129 5.13767 11.9437 5.46405 12.0431L5.45311 12.5694C5.44873 12.7811 5.59705 12.9657 5.8053 13.0073C6.59411 13.1644 7.40611 13.1644 8.19492 13.0073C8.40317 12.9657 8.55148 12.7811 8.54711 12.5694L8.53617 12.0431C8.86255 11.9437 9.17886 11.8129 9.47986 11.6524L9.8443 12.0317C9.9913 12.1848 10.2267 12.2106 10.403 12.0929C11.0719 11.6458 11.6459 11.0718 12.093 10.4029C12.2107 10.2266 12.1849 9.99119 12.0318 9.84419L11.6525 9.47975C11.813 9.17875 11.9439 8.86244 12.0432 8.53606L12.5695 8.547C12.7812 8.55137 12.9659 8.40306 13.0074 8.19481C13.1645 7.406 13.1645 6.594 13.0074 5.80519C12.9659 5.59694 12.7812 5.44862 12.5695 5.453L12.0432 5.46394C11.9439 5.13756 11.813 4.82125 11.6525 4.52025L12.0318 4.15581C12.1849 4.00881 12.2107 3.77344 12.093 3.59712C11.6459 2.92819 11.0719 2.35419 10.403 1.90706C10.2267 1.78937 9.9913 1.81519 9.8443 1.96831L9.47986 2.34762C9.17886 2.18706 8.86255 2.05625 8.53617 1.95694L8.54711 1.43062ZM7.66423 1.792L7.65417 2.28156C7.65023 2.4885 7.79111 2.67006 7.9928 2.71687C8.46486 2.82625 8.91548 3.01262 9.32673 3.269C9.50261 3.37881 9.73098 3.35037 9.87405 3.20075L10.2127 2.84769C10.5644 3.11981 10.8803 3.43569 11.1524 3.78744L10.7994 4.12606C10.6497 4.26912 10.6213 4.4975 10.7311 4.67337C10.9875 5.08462 11.1739 5.53525 11.2832 6.00731C11.33 6.209 11.5116 6.34987 11.7185 6.34594L12.2081 6.33587C12.2641 6.77688 12.2641 7.22312 12.2081 7.66412L11.7185 7.65406C11.5116 7.65013 11.33 7.791 11.2832 7.99269C11.1739 8.46475 10.9875 8.91537 10.7311 9.32662C10.6213 9.5025 10.6497 9.73088 10.7994 9.87394L11.1524 10.2126C10.8803 10.5643 10.5644 10.8802 10.2127 11.1523L9.87405 10.7992C9.73098 10.6496 9.50261 10.6212 9.32673 10.731C8.91548 10.9874 8.46486 11.1737 7.9928 11.2831C7.79111 11.3299 7.65023 11.5115 7.65417 11.7184L7.66423 12.208C7.22323 12.264 6.77698 12.264 6.33598 12.208L6.34605 11.7184C6.34998 11.5115 6.20911 11.3299 6.00742 11.2831C5.53536 11.1737 5.08473 10.9874 4.67348 10.731C4.49761 10.6212 4.26923 10.6496 4.12617 10.7992L3.78755 11.1523C3.4358 10.8802 3.11992 10.5643 2.8478 10.2126L3.20086 9.87394C3.35048 9.73088 3.37892 9.5025 3.26911 9.32662C3.01273 8.91537 2.82636 8.46475 2.71698 7.99269C2.67017 7.791 2.48861 7.65013 2.28167 7.65406L1.79211 7.66412C1.73611 7.22312 1.73611 6.77688 1.79211 6.33587L2.28167 6.34594C2.48861 6.34987 2.67017 6.209 2.71698 6.00731C2.82636 5.53525 3.01273 5.08462 3.26911 4.67337C3.37892 4.4975 3.35048 4.26912 3.20086 4.12606L2.8478 3.78744C3.11992 3.43569 3.4358 3.11981 3.78755 2.84769L4.12617 3.20075C4.26923 3.35037 4.49761 3.37881 4.67348 3.269C5.08473 3.01262 5.53536 2.82625 6.00742 2.71687C6.20911 2.67006 6.34998 2.4885 6.34605 2.28156L6.33598 1.792C6.77698 1.736 7.22323 1.736 7.66423 1.792Z" stroke="white"/>
</g>
<defs>
<clipPath id="clip0_905_8507">
<rect width="14" height="14" fill="white"/>
</clipPath>
</defs>
</svg>
