<svg width="92" height="91" viewBox="0 0 92 91" fill="none" xmlns="http://www.w3.org/2000/svg">
<g clip-path="url(#clip0_531_6904)">
<path d="M36.5146 45.7671C36.3733 45.6258 36.2673 45.4492 36.2673 45.2372C36.2673 44.8132 36.5852 44.4953 37.0092 44.4954L86.1148 44.4953C86.5388 44.4953 86.8567 44.8132 86.8566 45.2371C86.8565 45.6611 86.5387 45.9791 86.1148 45.979L37.0092 45.9791C36.8325 46.0145 36.6559 45.9085 36.5146 45.7671Z" fill="#33363A"/>
<path d="M5.35572 45.7671C5.21441 45.6258 5.10841 45.4491 5.10841 45.2371C5.10841 44.8131 5.42633 44.4952 5.85025 44.4953L7.61655 44.4953C8.04056 44.4953 8.35848 44.8132 8.35839 45.2371C8.35839 45.6612 8.04047 45.9791 7.61655 45.979L5.85025 45.979C5.63834 45.9791 5.49703 45.9084 5.35572 45.7671Z" fill="#33363A"/>
<path d="M10.6546 45.7672C10.5133 45.6258 10.4073 45.4492 10.4073 45.2372C10.4073 44.8132 10.7252 44.4953 11.1491 44.4954L14.6819 44.4954C15.1059 44.4954 15.4238 44.8133 15.4237 45.2372C15.4236 45.6612 15.1058 45.9792 14.6819 45.9791L11.1491 45.9791C10.9725 46.0145 10.7959 45.9085 10.6546 45.7672ZM17.7907 45.7672C17.6494 45.6258 17.5434 45.4492 17.5434 45.2372C17.5434 44.8132 17.8614 44.4953 18.2853 44.4954L21.8181 44.4954C22.2421 44.4954 22.56 44.8133 22.5599 45.2372C22.5599 45.6612 22.242 45.9792 21.8181 45.9791L18.2853 45.9791C18.1088 46.0144 17.9321 45.9085 17.7907 45.7672ZM24.927 45.7671C24.7857 45.6258 24.6797 45.4491 24.6797 45.2371C24.6797 44.8131 24.9976 44.4952 25.4215 44.4953L28.9543 44.4953C29.3783 44.4953 29.6963 44.8132 29.6962 45.2371C29.6962 45.6611 29.3782 45.9791 28.9543 45.979L25.4215 45.979C25.2449 46.0144 25.0683 45.9084 24.927 45.7671Z" fill="#33363A"/>
<path d="M32.0632 45.7671C31.9219 45.6258 31.8159 45.4491 31.8159 45.2371C31.8159 44.8131 32.1338 44.4952 32.5578 44.4953L34.3241 44.4953C34.7481 44.4953 35.066 44.8132 35.0659 45.2371C35.0659 45.6611 34.748 45.9791 34.3241 45.979L32.5577 45.9791C32.3459 45.9791 32.2045 45.9084 32.0632 45.7671Z" fill="#33363A"/>
<path d="M88.1989 43.1882C89.3294 44.3187 89.3294 46.1558 88.1989 47.2862C87.0684 48.4167 85.2314 48.4167 84.1009 47.2862C82.9704 46.1558 82.9704 44.3187 84.1009 43.1882C85.2668 42.093 87.1037 42.0931 88.1989 43.1882Z" fill="white"/>
<path d="M84.1361 47.2509C83.0056 46.1205 83.0056 44.2834 84.1361 43.1529C85.2665 42.0225 87.1036 42.0225 88.2341 43.1529" fill="#D8E5EA"/>
<path d="M83.6063 47.7808C82.935 47.1095 82.5464 46.1557 82.5464 45.2372C82.5464 44.248 82.935 43.3649 83.6063 42.6937C84.2775 42.0225 85.2314 41.6338 86.1498 41.6338C87.139 41.6337 88.0222 42.0224 88.6934 42.6936C89.3647 43.3648 89.7533 44.3187 89.7533 45.2371C89.7533 46.2264 89.3647 47.1094 88.6934 47.7807C88.0222 48.4519 87.0684 48.8405 86.1499 48.8405C85.196 48.876 84.3128 48.4873 83.6063 47.7808ZM87.6689 43.7181C87.2803 43.3295 86.7503 43.0822 86.1851 43.0822C85.6199 43.0822 85.09 43.3295 84.7013 43.7181C84.3127 44.1068 84.0654 44.6367 84.0654 45.2019C84.0654 45.7672 84.3127 46.2971 84.7013 46.6857C85.09 47.0743 85.6199 47.3216 86.1851 47.3216C86.7503 47.3216 87.2803 47.0743 87.6689 46.6857C88.0575 46.2971 88.3048 45.7672 88.3048 45.2019C88.2695 44.672 88.0928 44.1421 87.6689 43.7181Z" fill="#33363A"/>
<path d="M7.8991 43.2235C9.02956 44.354 9.02957 46.1911 7.89911 47.3215C6.76865 48.452 4.93155 48.452 3.80109 47.3215C2.67063 46.1911 2.67063 44.354 3.80109 43.2235C4.96695 42.0577 6.76864 42.0931 7.8991 43.2235Z" fill="white"/>
<path d="M3.83625 47.2861C2.70579 46.1557 2.70579 44.3186 3.83625 43.1881C4.96671 42.0577 6.8038 42.0577 7.93426 43.1881" fill="#D8E5EA"/>
<path d="M3.30656 47.8161C2.63533 47.1448 2.24671 46.191 2.24671 45.2725C2.24671 44.2833 2.63533 43.4002 3.30656 42.729C3.9778 42.0578 4.93164 41.6691 5.8501 41.6691C6.83934 41.6691 7.7224 42.0578 8.39363 42.729C9.06487 43.4002 9.45348 44.3541 9.45348 45.2725C9.45348 46.2618 9.06487 47.1448 8.39363 47.8161C7.7224 48.4873 6.76855 48.8759 5.8501 48.8759C4.89634 48.8406 3.9778 48.4873 3.30656 47.8161ZM7.36927 43.7534C6.98065 43.3647 6.45072 43.1174 5.88549 43.1174C5.32026 43.1174 4.79034 43.3647 4.40172 43.7534C4.0131 44.142 3.76579 44.6719 3.76579 45.2371C3.76579 45.8024 4.0131 46.3323 4.40172 46.7209C4.79034 47.1095 5.32026 47.3568 5.88549 47.3568C6.45072 47.3568 6.98065 47.1095 7.36927 46.7209C7.75789 46.3323 8.0052 45.8024 8.0052 45.2371C8.0052 44.6719 7.75789 44.142 7.36927 43.7534Z" fill="#33363A"/>
</g>
<defs>
<clipPath id="clip0_531_6904">
<rect width="64" height="64" fill="white" transform="translate(46) rotate(45)"/>
</clipPath>
</defs>
</svg>
