<svg width="40" height="40" viewBox="0 0 40 40" fill="none" xmlns="http://www.w3.org/2000/svg">
<path d="M5.75909 6.44176V16.6114C5.75909 17.0177 6.08846 17.3468 6.49449 17.3468H16.6644C17.0704 17.3468 17.3998 17.0177 17.3998 16.6114V14.6831C17.3998 14.2768 17.0704 13.9477 16.6644 13.9477C16.2584 13.9477 15.9292 14.2768 15.9292 14.6831V15.8763H7.22989V7.17693H15.9292V8.94733C15.9292 9.35359 16.2584 9.68295 16.6644 9.68295C17.0704 9.68295 17.3998 9.35359 17.3998 8.94733V6.44176C17.3998 6.03549 17.0704 5.70636 16.6644 5.70636H6.49449C6.08846 5.70636 5.75909 6.03549 5.75909 6.44176Z" fill="white"/>
<path d="M10.0541 9.26587C9.64781 9.26587 9.31891 9.595 9.31891 10.001V13.052C9.31891 13.4581 9.64781 13.7874 10.0541 13.7874H13.1051C13.5111 13.7874 13.8405 13.4581 13.8405 13.052V10.001C13.8405 9.595 13.5111 9.26587 13.1051 9.26587H10.0541ZM12.3699 12.3169H10.7895V10.7364H12.3699V12.3169Z" fill="white"/>
<path d="M16.6644 22.5983H6.49449C6.08846 22.5983 5.75909 22.9274 5.75909 23.3334V33.5036C5.75909 33.9096 6.08846 34.2387 6.49449 34.2387H16.6644C17.0704 34.2387 17.3998 33.9096 17.3998 33.5036V23.3334C17.3998 22.9274 17.0704 22.5983 16.6644 22.5983ZM15.9292 32.7682H7.22989V24.0688H15.9292V32.7682Z" fill="white"/>
<path d="M23.4375 17.3468H33.6076C34.0134 17.3468 34.3428 17.0177 34.3428 16.6114V6.44176C34.3428 6.03549 34.0134 5.70636 33.6076 5.70636H23.4375C23.0314 5.70636 22.7021 6.03549 22.7021 6.44176V16.6114C22.7021 17.0177 23.0314 17.3468 23.4375 17.3468ZM24.1727 7.17693H32.872V15.8763H24.1727V7.17693Z" fill="white"/>
<path d="M34.3428 33.5036V23.3334C34.3428 22.9274 34.0134 22.5983 33.6076 22.5983H23.4375C23.0314 22.5983 22.7021 22.9274 22.7021 23.3334V33.5036C22.7021 33.9096 23.0314 34.2387 23.4375 34.2387H33.6076C34.0134 34.2387 34.3428 33.9096 34.3428 33.5036ZM32.872 32.7682H24.1727V24.0688H32.872V32.7682Z" fill="white"/>
<path d="M33.6077 20.7524C34.0135 20.7524 34.3428 20.423 34.3428 20.017C34.3428 19.6107 34.0135 19.2818 33.6077 19.2818H20.7152V6.36028C20.7152 5.95424 20.3858 5.62488 19.98 5.62488C19.5735 5.62488 19.2444 5.95424 19.2444 6.36028V19.2818H9.48444C9.07863 19.2818 8.74927 19.6109 8.74927 20.017C8.74927 20.4232 9.07863 20.7524 9.48444 20.7524H19.2444V33.5036C19.2444 33.9096 19.5735 34.2388 19.98 34.2388C20.3858 34.2388 20.7152 33.9096 20.7152 33.5036V20.7524H33.6077Z" fill="white"/>
<path d="M10.0541 30.7341H13.1051C13.5111 30.7341 13.8405 30.4047 13.8405 29.9987V26.9477C13.8405 26.5414 13.5111 26.2125 13.1051 26.2125H10.0541C9.64781 26.2125 9.31891 26.5414 9.31891 26.9477V29.9987C9.31891 30.4047 9.64781 30.7341 10.0541 30.7341ZM10.7895 27.6831H12.3699V29.2635H10.7895V27.6831Z" fill="white"/>
<path d="M30.0479 9.26587H26.9969C26.5908 9.26587 26.2615 9.595 26.2615 10.001V13.052C26.2615 13.4581 26.5908 13.7874 26.9969 13.7874H30.0479C30.4541 13.7874 30.7833 13.4581 30.7833 13.052V10.001C30.7833 9.595 30.4541 9.26587 30.0479 9.26587ZM29.3125 12.3169H27.7325V10.7364H29.3125V12.3169Z" fill="white"/>
<path d="M26.9969 30.7341H30.0479C30.4541 30.7341 30.7833 30.4047 30.7833 29.9987V26.9477C30.7833 26.5414 30.4541 26.2125 30.0479 26.2125H26.9969C26.5908 26.2125 26.2615 26.5414 26.2615 26.9477V29.9987C26.2615 30.4047 26.5908 30.7341 26.9969 30.7341ZM27.7325 27.6831H29.3125V29.2635H27.7325V27.6831Z" fill="white"/>
<path d="M6.34578 19.2848L6.30618 19.2939C5.9109 19.3873 5.666 19.7833 5.75915 20.1785C5.83903 20.5171 6.14093 20.7455 6.47418 20.7455C6.53026 20.7455 6.58679 20.7389 6.64355 20.7253L6.68292 20.7162C7.07843 20.623 7.32333 20.2271 7.22995 19.8318C7.13702 19.4367 6.74106 19.1918 6.34578 19.2848Z" fill="white"/>
<path d="M16.5163 11.0814L16.4767 11.0908C16.0815 11.1835 15.8363 11.5792 15.929 11.9747C16.0082 12.3137 16.3103 12.5423 16.6443 12.5423C16.6997 12.5423 16.756 12.5359 16.8127 12.5224L16.8521 12.5133C17.2476 12.4206 17.4927 12.0246 17.4 11.6296C17.3073 11.2343 16.9114 10.9887 16.5163 11.0814Z" fill="white"/>
<path d="M1.96564 7.2925C2.37213 7.2925 2.70103 6.96336 2.70103 6.55733V2.74004H6.37939C6.78566 2.74004 7.11502 2.41113 7.11502 2.00487C7.11502 1.59883 6.78566 1.26947 6.37939 1.26947H1.96564C1.55983 1.26947 1.23047 1.59883 1.23047 2.00487V6.55733C1.23047 6.96336 1.55983 7.2925 1.96564 7.2925Z" fill="white"/>
<path d="M37.9953 1.26947H33.5816C33.1753 1.26947 32.8459 1.59883 32.8459 2.00487C32.8459 2.41113 33.1753 2.74004 33.5816 2.74004H37.2599V6.55733C37.2599 6.96336 37.5888 7.2925 37.9953 7.2925C38.4011 7.2925 38.7305 6.96336 38.7305 6.55733V2.00487C38.7305 1.59883 38.4011 1.26947 37.9953 1.26947Z" fill="white"/>
<path d="M6.37939 37.2673H2.70103V33.4503C2.70103 33.0444 2.37213 32.7151 1.96564 32.7151C1.55983 32.7151 1.23047 33.0444 1.23047 33.4503V38.0027C1.23047 38.4088 1.55983 38.7381 1.96564 38.7381H6.37939C6.78566 38.7381 7.11502 38.4088 7.11502 38.0027C7.11502 37.5965 6.78566 37.2673 6.37939 37.2673Z" fill="white"/>
<path d="M37.9953 32.7151C37.5888 32.7151 37.2599 33.0444 37.2599 33.4503V37.2673H33.5816C33.1753 37.2673 32.8459 37.5965 32.8459 38.0027C32.8459 38.4088 33.1753 38.7381 33.5816 38.7381H37.9953C38.4011 38.7381 38.7305 38.4088 38.7305 38.0027V33.4503C38.7305 33.0444 38.4011 32.7151 37.9953 32.7151Z" fill="white"/>
</svg>
