<svg width="32" height="39" viewBox="0 0 32 39" fill="none" xmlns="http://www.w3.org/2000/svg">
<path d="M30.8483 34.6533L27.5983 31.3933C28.3634 29.7944 28.5384 27.9764 28.0925 26.2609C27.6465 24.5453 26.6084 23.0427 25.1615 22.0187C23.7146 20.9947 21.9523 20.5153 20.1861 20.6653C18.4199 20.8152 16.7636 21.5848 15.5101 22.8381C14.2565 24.0913 13.4865 25.7474 13.3362 27.5136C13.1858 29.2798 13.6648 31.0422 14.6885 32.4893C15.7121 33.9364 17.2145 34.9749 18.9299 35.4213C20.6453 35.8676 22.4634 35.693 24.0625 34.9283L27.3216 38.1783C27.5533 38.4101 27.8283 38.594 28.131 38.7195C28.4336 38.845 28.7581 38.9097 29.0858 38.9098C29.4134 38.9099 29.7379 38.8455 30.0407 38.7202C30.3435 38.5949 30.6186 38.4112 30.8504 38.1796C31.0822 37.948 31.2661 37.673 31.3916 37.3703C31.5171 37.0676 31.5817 36.7431 31.5819 36.4155C31.582 36.0878 31.5175 35.7633 31.3923 35.4605C31.267 35.1577 31.0833 34.8826 30.8516 34.6508L30.8483 34.6533ZM16.7083 32.2917C15.8926 31.4758 15.3371 30.4364 15.112 29.3049C14.887 28.1733 15.0025 27.0005 15.4441 25.9346C15.8856 24.8688 16.6333 23.9577 17.5925 23.3168C18.5518 22.6758 19.6796 22.3337 20.8333 22.3337C21.987 22.3337 23.1148 22.6758 24.0741 23.3168C25.0334 23.9577 25.781 24.8688 26.2226 25.9346C26.6641 27.0005 26.7796 28.1733 26.5546 29.3049C26.3296 30.4364 25.7741 31.4758 24.9583 32.2917C23.8636 33.3843 22.38 33.998 20.8333 33.998C19.2866 33.998 17.8031 33.3843 16.7083 32.2917ZM29.6666 37C29.5107 37.1542 29.3002 37.2407 29.0808 37.2407C28.8615 37.2407 28.651 37.1542 28.495 37L25.5108 34.0225C25.9486 33.6778 26.3441 33.2825 26.6891 32.845L29.6666 35.8333C29.7439 35.9101 29.8052 36.0014 29.847 36.1019C29.8889 36.2024 29.9104 36.3103 29.9104 36.4192C29.9104 36.5281 29.8889 36.6359 29.847 36.7364C29.8052 36.837 29.7439 36.9282 29.6666 37.005V37Z" fill="white"/>
<path d="M15.8333 35.6667H4.99992C4.33688 35.6667 3.70099 35.4033 3.23215 34.9344C2.76331 34.4656 2.49992 33.8297 2.49992 33.1667V4.83333C2.49992 4.17028 2.76331 3.5344 3.23215 3.06556C3.70099 2.59672 4.33688 2.33333 4.99992 2.33333H19.4833C19.657 2.33377 19.8301 2.35249 19.9999 2.38916V7.33333C19.9999 7.99637 20.2633 8.63225 20.7322 9.10109C21.201 9.56993 21.8369 9.83333 22.4999 9.83333H27.4358C27.4769 10.0113 27.4984 10.1932 27.4999 10.3758V21.5C27.4999 21.721 27.5877 21.933 27.744 22.0892C27.9003 22.2455 28.1122 22.3333 28.3333 22.3333C28.5543 22.3333 28.7662 22.2455 28.9225 22.0892C29.0788 21.933 29.1666 21.721 29.1666 21.5V10.3758C29.1677 9.83017 29.0611 9.28966 28.8529 8.78529C28.6447 8.28093 28.339 7.82262 27.9533 7.43666L22.4366 1.89416C22.0504 1.50382 21.5904 1.19425 21.0833 0.983509C20.5763 0.772764 20.0323 0.665054 19.4833 0.666659H4.99992C3.89526 0.667982 2.83622 1.10739 2.0551 1.88851C1.27399 2.66962 0.834575 3.72866 0.833252 4.83333V33.1667C0.834575 34.2713 1.27399 35.3304 2.0551 36.1115C2.83622 36.8926 3.89526 37.332 4.99992 37.3333H15.8333C16.0543 37.3333 16.2662 37.2455 16.4225 37.0893C16.5788 36.933 16.6666 36.721 16.6666 36.5C16.6666 36.279 16.5788 36.067 16.4225 35.9107C16.2662 35.7545 16.0543 35.6667 15.8333 35.6667ZM26.3283 8.16666H22.4999C22.2789 8.16666 22.0669 8.07886 21.9107 7.92258C21.7544 7.7663 21.6666 7.55434 21.6666 7.33333V3.48333L26.3283 8.16666Z" fill="white"/>
<path d="M6.66659 9.83332H15.8333C16.0543 9.83332 16.2662 9.74553 16.4225 9.58925C16.5788 9.43296 16.6666 9.221 16.6666 8.99999C16.6666 8.77898 16.5788 8.56701 16.4225 8.41073C16.2662 8.25445 16.0543 8.16666 15.8333 8.16666H6.66659C6.44557 8.16666 6.23361 8.25445 6.07733 8.41073C5.92105 8.56701 5.83325 8.77898 5.83325 8.99999C5.83325 9.221 5.92105 9.43296 6.07733 9.58925C6.23361 9.74553 6.44557 9.83332 6.66659 9.83332Z" fill="white"/>
<path d="M23.3333 13.1667H9.16659C8.94557 13.1667 8.73361 13.2545 8.57733 13.4107C8.42105 13.567 8.33325 13.779 8.33325 14C8.33325 14.221 8.42105 14.433 8.57733 14.5892C8.73361 14.7455 8.94557 14.8333 9.16659 14.8333H23.3333C23.5543 14.8333 23.7662 14.7455 23.9225 14.5892C24.0788 14.433 24.1666 14.221 24.1666 14C24.1666 13.779 24.0788 13.567 23.9225 13.4107C23.7662 13.2545 23.5543 13.1667 23.3333 13.1667Z" fill="white"/>
<path d="M24.1666 18.1667C24.1666 17.9456 24.0788 17.7337 23.9225 17.5774C23.7662 17.4211 23.5543 17.3333 23.3333 17.3333H6.66659C6.44557 17.3333 6.23361 17.4211 6.07733 17.5774C5.92105 17.7337 5.83325 17.9456 5.83325 18.1667C5.83325 18.3877 5.92105 18.5996 6.07733 18.7559C6.23361 18.9122 6.44557 19 6.66659 19H23.3333C23.5543 19 23.7662 18.9122 23.9225 18.7559C24.0788 18.5996 24.1666 18.3877 24.1666 18.1667Z" fill="white"/>
<path d="M12.4999 22.3333C12.4999 22.1123 12.4121 21.9003 12.2558 21.7441C12.0996 21.5878 11.8876 21.5 11.6666 21.5H6.66659C6.44557 21.5 6.23361 21.5878 6.07733 21.7441C5.92105 21.9003 5.83325 22.1123 5.83325 22.3333C5.83325 22.5543 5.92105 22.7663 6.07733 22.9226C6.23361 23.0789 6.44557 23.1667 6.66659 23.1667H11.6666C11.8876 23.1667 12.0996 23.0789 12.2558 22.9226C12.4121 22.7663 12.4999 22.5543 12.4999 22.3333Z" fill="white"/>
<path d="M6.66659 27.3333H9.99992C10.2209 27.3333 10.4329 27.2455 10.5892 27.0893C10.7455 26.933 10.8333 26.721 10.8333 26.5C10.8333 26.279 10.7455 26.067 10.5892 25.9107C10.4329 25.7545 10.2209 25.6667 9.99992 25.6667H6.66659C6.44557 25.6667 6.23361 25.7545 6.07733 25.9107C5.92105 26.067 5.83325 26.279 5.83325 26.5C5.83325 26.721 5.92105 26.933 6.07733 27.0893C6.23361 27.2455 6.44557 27.3333 6.66659 27.3333Z" fill="white"/>
<path d="M6.66659 31.5H10.8333C11.0543 31.5 11.2662 31.4122 11.4225 31.2559C11.5788 31.0996 11.6666 30.8877 11.6666 30.6667C11.6666 30.4456 11.5788 30.2337 11.4225 30.0774C11.2662 29.9211 11.0543 29.8333 10.8333 29.8333H6.66659C6.44557 29.8333 6.23361 29.9211 6.07733 30.0774C5.92105 30.2337 5.83325 30.4456 5.83325 30.6667C5.83325 30.8877 5.92105 31.0996 6.07733 31.2559C6.23361 31.4122 6.44557 31.5 6.66659 31.5Z" fill="white"/>
<path d="M20.8332 30.6667C20.1701 30.6667 19.5342 30.4033 19.0654 29.9344C18.5966 29.4656 18.3332 28.8297 18.3332 28.1667C18.3332 27.9456 18.2454 27.7337 18.0891 27.5774C17.9328 27.4211 17.7209 27.3333 17.4998 27.3333C17.2788 27.3333 17.0669 27.4211 16.9106 27.5774C16.7543 27.7337 16.6665 27.9456 16.6665 28.1667C16.6678 29.2713 17.1072 30.3304 17.8884 31.1115C18.6695 31.8926 19.7285 32.332 20.8332 32.3333C21.0542 32.3333 21.2661 32.2455 21.4224 32.0893C21.5787 31.933 21.6665 31.721 21.6665 31.5C21.6665 31.279 21.5787 31.067 21.4224 30.9107C21.2661 30.7545 21.0542 30.6667 20.8332 30.6667Z" fill="white"/>
</svg>
