<svg width="14" height="14" viewBox="0 0 14 14" fill="none" xmlns="http://www.w3.org/2000/svg">
<path d="M11.9498 2.05025C10.6276 0.728134 8.86974 0 7 0C5.13016 0 3.37236 0.728134 2.05025 2.05025C0.728134 3.37236 0 5.13016 0 7C0 8.86974 0.728134 10.6276 2.05025 11.9498C3.37236 13.2719 5.13016 14 7 14C8.86974 14 10.6276 13.2719 11.9498 11.9498C13.2719 10.6276 14 8.86974 14 7C14 5.13016 13.2719 3.37236 11.9498 2.05025ZM3.50929 12.0965C3.80206 10.4108 5.26282 9.16742 7 9.16742C8.73729 9.16742 10.1979 10.4108 10.4907 12.0965C9.49683 12.7794 8.29434 13.1797 7 13.1797C5.70566 13.1797 4.50317 12.7794 3.50929 12.0965ZM4.77426 6.12137C4.77426 4.894 5.77274 3.89563 7 3.89563C8.22726 3.89563 9.22574 4.8941 9.22574 6.12137C9.22574 7.34863 8.22726 8.34711 7 8.34711C5.77274 8.34711 4.77426 7.34863 4.77426 6.12137ZM11.2012 11.5275C10.9804 10.7428 10.542 10.0308 9.92738 9.47461C9.55034 9.13335 9.12117 8.86407 8.65974 8.67427C9.49373 8.13028 10.0462 7.18916 10.0462 6.12137C10.0462 4.44176 8.67961 3.07532 7 3.07532C5.32039 3.07532 3.95395 4.44176 3.95395 6.12137C3.95395 7.18916 4.50638 8.13028 5.34026 8.67427C4.87894 8.86407 4.44966 9.13324 4.07262 9.4745C3.45813 10.0307 3.01956 10.7427 2.79878 11.5274C1.58273 10.3981 0.820312 8.78653 0.820312 7C0.820312 3.5925 3.5925 0.820312 7 0.820312C10.4075 0.820312 13.1797 3.5925 13.1797 7C13.1797 8.78664 12.4173 10.3982 11.2012 11.5275Z" fill="#353454"/>
</svg>
