<svg width="14" height="13" viewBox="0 0 14 13" fill="none" xmlns="http://www.w3.org/2000/svg">
<path d="M11.7206 0.859375H10.1806V0.640625C10.1806 0.524593 10.1345 0.413313 10.0525 0.331266C9.97044 0.249219 9.85916 0.203125 9.74312 0.203125C9.62709 0.203125 9.51581 0.249219 9.43377 0.331266C9.35172 0.413313 9.30562 0.524593 9.30562 0.640625V0.859375H4.69438V0.640625C4.69438 0.524593 4.64828 0.413313 4.56623 0.331266C4.48419 0.249219 4.37291 0.203125 4.25687 0.203125C4.14084 0.203125 4.02956 0.249219 3.94752 0.331266C3.86547 0.413313 3.81937 0.524593 3.81937 0.640625V0.859375H2.27938C1.79123 0.86053 1.32342 1.05496 0.978249 1.40012C0.633081 1.74529 0.438655 2.21311 0.4375 2.70125V10.375C0.438655 10.8631 0.633081 11.331 0.978249 11.6761C1.32342 12.0213 1.79123 12.2157 2.27938 12.2169H11.7206C12.2088 12.2157 12.6766 12.0213 13.0218 11.6761C13.3669 11.331 13.5613 10.8631 13.5625 10.375V2.70125C13.5613 2.21311 13.3669 1.74529 13.0218 1.40012C12.6766 1.05496 12.2088 0.86053 11.7206 0.859375ZM2.27938 1.73438H3.81937V1.95313C3.81937 2.06916 3.86547 2.18044 3.94752 2.26248C4.02956 2.34453 4.14084 2.39063 4.25687 2.39063C4.37291 2.39063 4.48419 2.34453 4.56623 2.26248C4.64828 2.18044 4.69438 2.06916 4.69438 1.95313V1.73438H9.30562V1.95313C9.30562 2.06916 9.35172 2.18044 9.43377 2.26248C9.51581 2.34453 9.62709 2.39063 9.74312 2.39063C9.85916 2.39063 9.97044 2.34453 10.0525 2.26248C10.1345 2.18044 10.1806 2.06916 10.1806 1.95313V1.73438H11.7206C11.9771 1.73438 12.223 1.83624 12.4043 2.01757C12.5856 2.19889 12.6875 2.44482 12.6875 2.70125V3.73813H1.3125V2.70125C1.3125 2.44482 1.41437 2.19889 1.59569 2.01757C1.77702 1.83624 2.02294 1.73438 2.27938 1.73438ZM11.7206 11.3594H2.27938C2.15092 11.3594 2.02374 11.3338 1.90528 11.2841C1.78682 11.2345 1.67944 11.1617 1.58943 11.07C1.49941 10.9784 1.42856 10.8697 1.38101 10.7504C1.33347 10.6311 1.31017 10.5034 1.3125 10.375V4.61313H12.6875V10.375C12.6898 10.5034 12.6665 10.6311 12.619 10.7504C12.5714 10.8697 12.5006 10.9784 12.4106 11.07C12.3206 11.1617 12.2132 11.2345 12.0947 11.2841C11.9763 11.3338 11.8491 11.3594 11.7206 11.3594Z" fill="#353454"/>
</svg>
