<svg width="14" height="12" viewBox="0 0 14 12" fill="none" xmlns="http://www.w3.org/2000/svg">
<path d="M11.9486 0.75H2.05144C1.62354 0.750463 1.21329 0.920651 0.910723 1.22322C0.608151 1.52579 0.437963 1.93604 0.4375 2.36394V9.63606C0.437963 10.064 0.608151 10.4742 0.910723 10.7768C1.21329 11.0793 1.62354 11.2495 2.05144 11.25H11.9486C12.3765 11.2495 12.7867 11.0793 13.0893 10.7768C13.3918 10.4742 13.562 10.064 13.5625 9.63606V2.36394C13.562 1.93604 13.3918 1.52579 13.0893 1.22322C12.7867 0.920651 12.3765 0.750463 11.9486 0.75V0.75ZM2.05144 1.625H11.9486C12.1445 1.62523 12.3323 1.70316 12.4708 1.84169C12.6093 1.98021 12.6873 2.16803 12.6875 2.36394V2.69863L7 6.35481L1.3125 2.69863V2.36394C1.31273 2.16803 1.39066 1.98021 1.52919 1.84169C1.66771 1.70316 1.85553 1.62523 2.05144 1.625V1.625ZM11.9486 10.375H2.05144C1.85553 10.3748 1.66771 10.2968 1.52919 10.1583C1.39066 10.0198 1.31273 9.83197 1.3125 9.63606V3.739L6.76331 7.24294C6.8339 7.28835 6.91607 7.31249 7 7.31249C7.08393 7.31249 7.1661 7.28835 7.23669 7.24294L12.6875 3.739V9.63606C12.6873 9.83197 12.6093 10.0198 12.4708 10.1583C12.3323 10.2968 12.1445 10.3748 11.9486 10.375V10.375Z" fill="#353454"/>
</svg>
