<svg width="22" height="22" viewBox="0 0 22 22" fill="none" xmlns="http://www.w3.org/2000/svg">
<path fill-rule="evenodd" clip-rule="evenodd" d="M10.9998 1.60425C5.81425 1.60425 1.604 5.8145 1.604 11.0001C1.604 16.1857 5.81425 20.3959 10.9998 20.3959C16.1854 20.3959 20.3957 16.1857 20.3957 11.0001C20.3957 5.8145 16.1854 1.60425 10.9998 1.60425ZM10.9998 2.97925C15.4269 2.97925 19.0207 6.57304 19.0207 11.0001C19.0207 15.4271 15.4269 19.0209 10.9998 19.0209C6.5728 19.0209 2.979 15.4271 2.979 11.0001C2.979 6.57304 6.5728 2.97925 10.9998 2.97925ZM14.4373 12.8339V9.1672C14.4373 8.28124 13.7191 7.56303 12.8332 7.56303H9.1665C8.28055 7.56303 7.56234 8.28124 7.56234 9.1672V12.8339C7.56234 13.7198 8.28055 14.438 9.1665 14.438H12.8332C13.7191 14.438 14.4373 13.7198 14.4373 12.8339Z" fill="white"/>
</svg>
