<svg width="21" height="20" viewBox="0 0 21 20" fill="none" xmlns="http://www.w3.org/2000/svg">
<g clip-path="url(#clip0_1299_8909)">
<path d="M19.8746 8.49144L12.0088 0.625674C11.1749 -0.208154 9.82523 -0.208311 8.99121 0.625674L1.12544 8.49144C0.291538 9.32531 0.291499 10.6752 1.12544 11.5091L8.99121 19.3748C9.82511 20.2087 11.1748 20.2088 12.0088 19.3748L19.8746 11.5091C20.7085 10.6752 20.7085 9.32535 19.8746 8.49144ZM18.9907 10.6252L11.125 18.491C10.7795 18.8364 10.2205 18.8364 9.87503 18.491L2.00927 10.6252C1.6639 10.2798 1.66386 9.72076 2.00927 9.37526L9.87503 1.50954C10.2205 1.16413 10.7795 1.16409 11.125 1.50954L18.9907 9.3753C18.9907 9.38632 19.2496 9.58904 19.2496 10.0003C19.2496 10.2364 19.1577 10.4583 18.9907 10.6252Z" fill="white"/>
<path d="M15.0845 8.05973C15.0355 7.98559 15.1865 8.14629 12.8878 5.81175C12.6457 5.56578 12.2499 5.5627 12.004 5.80491C11.7581 6.04709 11.755 6.44277 11.9971 6.6887L13.1038 7.81263H7.06296C6.71778 7.81263 6.43799 8.09246 6.43799 8.4376V12.4999C6.43799 12.8451 6.71778 13.1249 7.06296 13.1249C7.40814 13.1249 7.68793 12.8451 7.68793 12.4999V9.06257H13.0365L11.9298 10.1865C11.5398 10.5826 11.8257 11.25 12.3751 11.25C12.5367 11.25 12.6982 11.1877 12.8205 11.0635L14.8715 8.98043C15.2196 8.78188 15.2654 8.33354 15.0845 8.05973Z" fill="white"/>
</g>
<defs>
<clipPath id="clip0_1299_8909">
<rect width="20" height="20" fill="white" transform="translate(0.5)"/>
</clipPath>
</defs>
</svg>
