<svg width="18" height="18" viewBox="0 0 18 18" fill="none" xmlns="http://www.w3.org/2000/svg">
<path d="M14.8333 17.2333H3.16667C1.84332 17.2333 0.766668 16.1567 0.766668 14.8333V3.16666C0.766668 1.84331 1.84332 0.766664 3.16667 0.766664H14.8333C16.1567 0.766664 17.2333 1.84331 17.2333 3.16666V14.8333C17.2333 16.1567 16.1567 17.2333 14.8333 17.2333ZM3.16667 2.23333C2.65161 2.23333 2.23333 2.65208 2.23333 3.16666V14.8333C2.23333 15.3479 2.65161 15.7667 3.16667 15.7667H14.8333C15.3484 15.7667 15.7667 15.3479 15.7667 14.8333V3.16666C15.7667 2.65208 15.3484 2.23333 14.8333 2.23333H3.16667Z" fill="#353454" stroke="#FEF9EE" stroke-width="0.2"/>
</svg>
