<svg width="14" height="14" viewBox="0 0 14 14" fill="none" xmlns="http://www.w3.org/2000/svg">
<path d="M3.62456 10.8508V10.3373H10.3754V10.8508L10.3754 10.851C10.3783 11.514 10.9172 12.05 11.5801 12.05H12.3094C12.9722 12.05 13.5112 11.514 13.5141 10.851V10.8508L13.5141 6.86464L13.5141 6.86432C13.5112 6.41762 13.3293 5.99069 13.0051 5.68022L12.7312 5.3902L11.7458 2.73399L11.7457 2.73386C11.5699 2.26399 11.1203 1.95288 10.6191 1.95H10.6188H3.55523C3.05354 1.95 2.60405 2.2642 2.42829 2.73386L2.42823 2.73401L1.45724 5.3554L1.06069 5.72228C0.696451 6.03285 0.485889 6.48843 0.485889 6.96685L0.485888 10.8508L0.485889 10.851C0.488771 11.514 1.02773 12.05 1.69059 12.05H2.41987C3.08273 12.05 3.62168 11.514 3.62456 10.851V10.8508ZM12.3098 9.68481H12.3094L1.69059 9.68481L1.69017 9.68481C1.38885 9.68734 1.14101 9.44695 1.13838 9.14344V6.96685C1.13838 6.67778 1.26719 6.40167 1.48806 6.21498L1.48817 6.21512L1.49113 6.21215L1.49115 6.21214L1.49117 6.21212L1.49118 6.2121L1.4912 6.21209L1.49121 6.21207L1.49123 6.21205L1.49125 6.21204L1.49126 6.21202L1.49128 6.212L1.4913 6.21199L1.49131 6.21197L1.49133 6.21195L1.49135 6.21194L1.49137 6.21192L1.49138 6.2119L1.4914 6.21189L1.49142 6.21187L1.49143 6.21185L1.49145 6.21183L1.49147 6.21182L1.49149 6.2118L1.4915 6.21178L1.49152 6.21176L1.49154 6.21175L1.49156 6.21173L1.49157 6.21171L1.49159 6.21169L1.49161 6.21168L1.49163 6.21166L1.49165 6.21164L1.49166 6.21162L1.49168 6.2116L1.4917 6.21159L1.49172 6.21157L1.49174 6.21155L1.49175 6.21153L1.49177 6.21151L1.49179 6.21149L1.49181 6.21148L1.49183 6.21146L1.49185 6.21144L1.49187 6.21142L1.49188 6.2114L1.4919 6.21138L1.49192 6.21136L1.49194 6.21135L1.49196 6.21133L1.49198 6.21131L1.492 6.21129L1.49202 6.21127L1.49204 6.21125L1.49205 6.21123L1.49207 6.21121L1.49209 6.21119L1.49211 6.21117L1.49213 6.21115L1.49215 6.21114L1.49217 6.21112L1.49219 6.2111L1.49221 6.21108L1.49223 6.21106L1.49225 6.21104L1.49227 6.21102L1.49229 6.211L1.49231 6.21098L1.49233 6.21096L1.49235 6.21094L1.49237 6.21092L1.49239 6.2109L1.49241 6.21088L1.49243 6.21086L1.49245 6.21084L1.49247 6.21082L1.49249 6.2108L1.49251 6.21078L1.49253 6.21076L1.49255 6.21074L1.49257 6.21072L1.49259 6.2107L1.49261 6.21068L1.49263 6.21066L1.49265 6.21064L1.49267 6.21062L1.49269 6.21059L1.49271 6.21057L1.49273 6.21055L1.49275 6.21053L1.49277 6.21051L1.4928 6.21049L1.49282 6.21047L1.49284 6.21045L1.49286 6.21043L1.49288 6.21041L1.4929 6.21039L1.49292 6.21037L1.49294 6.21034L1.49296 6.21032L1.49298 6.2103L1.49301 6.21028L1.49303 6.21026L1.49305 6.21024L1.49307 6.21022L1.49309 6.2102L1.49311 6.21017L1.49313 6.21015L1.49316 6.21013L1.49318 6.21011L1.4932 6.21009L1.49322 6.21007L1.49324 6.21004L1.49326 6.21002L1.49328 6.21L1.49331 6.20998L1.49333 6.20996L1.49335 6.20994L1.49337 6.20991L1.49339 6.20989L1.49342 6.20987L1.49344 6.20985L1.49346 6.20983L1.49348 6.2098L1.4935 6.20978L1.49353 6.20976L1.49355 6.20974L1.49357 6.20972L1.49359 6.20969L1.49361 6.20967L1.49364 6.20965L1.49366 6.20963L1.49368 6.20961L1.4937 6.20958L1.49373 6.20956L1.49375 6.20954L1.49377 6.20952L1.49379 6.20949L1.49382 6.20947L1.49384 6.20945L1.49386 6.20943L1.49388 6.2094L1.49391 6.20938L1.49393 6.20936L1.49395 6.20934L1.49397 6.20931L1.494 6.20929L1.49402 6.20927L1.49404 6.20924L1.49406 6.20922L1.49409 6.2092L1.49411 6.20918L1.49413 6.20915L1.49416 6.20913L1.49418 6.20911L1.4942 6.20908L1.49423 6.20906L1.49425 6.20904L1.49427 6.20901L1.49429 6.20899L1.49432 6.20897L1.49434 6.20895L1.49436 6.20892L1.49439 6.2089L1.49441 6.20888L1.49443 6.20885L1.49446 6.20883L1.49448 6.20881L1.4945 6.20878L1.49453 6.20876L1.49455 6.20874L1.49457 6.20871L1.4946 6.20869L1.49462 6.20867L1.49464 6.20864L1.49467 6.20862L1.49469 6.2086L1.49471 6.20857L1.49474 6.20855L1.49476 6.20853L1.49478 6.2085L1.49481 6.20848L1.49483 6.20846L1.49485 6.20843L1.49488 6.20841L1.4949 6.20838L1.49493 6.20836L1.49495 6.20834L1.49497 6.20831L1.495 6.20829L1.49502 6.20827L1.49504 6.20824L1.49507 6.20822L1.49509 6.2082L1.49511 6.20817L1.49514 6.20815L1.49516 6.20812L1.49519 6.2081L1.49521 6.20808L1.49523 6.20805L1.49526 6.20803L1.49528 6.208L1.49531 6.20798L1.49533 6.20796L1.49535 6.20793L1.49538 6.20791L1.4954 6.20789L1.49543 6.20786L1.49545 6.20784L1.49547 6.20781L1.4955 6.20779L1.49552 6.20777L1.49555 6.20774L1.49557 6.20772L1.49559 6.20769L1.49562 6.20767L1.49564 6.20764L1.49567 6.20762L1.49569 6.2076L1.49571 6.20757L1.49574 6.20755L1.49576 6.20752L1.49579 6.2075L1.49581 6.20748L1.49583 6.20745L1.49586 6.20743L1.49588 6.2074L1.49591 6.20738L1.49593 6.20736L1.49595 6.20733L1.49598 6.20731L1.496 6.20728L1.49603 6.20726L1.49605 6.20723L1.49608 6.20721L1.4961 6.20719L1.49612 6.20716L1.49615 6.20714L1.49617 6.20711L1.4962 6.20709L1.49622 6.20707L1.49625 6.20704L1.49627 6.20702L1.49629 6.20699L1.49632 6.20697L1.49634 6.20694L1.49637 6.20692L1.49639 6.2069L1.49642 6.20687L1.49644 6.20685L1.49646 6.20682L1.49649 6.2068L1.49651 6.20677L1.49654 6.20675L1.49656 6.20673L1.49659 6.2067L1.49661 6.20668L1.49663 6.20665L1.49666 6.20663L1.49668 6.2066L1.49671 6.20658L1.49673 6.20656L1.49676 6.20653L1.49678 6.20651L1.4968 6.20648L1.49683 6.20646L1.49685 6.20643L1.49688 6.20641L1.4969 6.20639L1.49692 6.20636L1.49695 6.20634L1.49697 6.20631L1.497 6.20629L1.49702 6.20626L1.49705 6.20624L1.49707 6.20622L1.49709 6.20619L1.49712 6.20617L1.49714 6.20614L1.49717 6.20612L1.49719 6.20609L1.49722 6.20607L1.49724 6.20605L1.49726 6.20602L1.49729 6.206L1.49731 6.20597L1.49734 6.20595L1.49736 6.20593L1.49739 6.2059L1.49741 6.20588L1.49743 6.20585L1.49746 6.20583L1.49748 6.2058L1.49751 6.20578L1.49753 6.20576L1.49755 6.20573L1.49758 6.20571L1.4976 6.20568L1.49763 6.20566L1.49765 6.20564L1.49767 6.20561L1.4977 6.20559L1.49772 6.20556L1.49775 6.20554L1.49777 6.20552L1.49779 6.20549L1.49782 6.20547L1.49784 6.20544L1.49787 6.20542L1.49789 6.2054L1.49791 6.20537L1.49794 6.20535L1.49796 6.20532L1.49799 6.2053L1.49801 6.20528L1.49803 6.20525L1.49806 6.20523L1.49808 6.2052L1.49811 6.20518L1.49813 6.20516L1.49815 6.20513L1.49818 6.20511L1.4982 6.20509L1.49822 6.20506L1.49825 6.20504L1.49827 6.20501L1.4983 6.20499L1.49832 6.20497L1.49834 6.20494L1.49837 6.20492L1.49839 6.2049L1.49841 6.20487L1.49844 6.20485L1.49846 6.20482L1.49849 6.2048L1.49851 6.20478L1.49853 6.20475L1.49856 6.20473L1.49858 6.20471L1.4986 6.20468L1.49863 6.20466L1.49865 6.20464L1.49867 6.20461L1.4987 6.20459L1.49872 6.20457L1.49874 6.20454L1.49877 6.20452L1.49879 6.2045L1.49881 6.20447L1.49884 6.20445L1.49886 6.20443L1.49888 6.2044L1.49891 6.20438L1.49893 6.20436L1.49895 6.20433L1.49898 6.20431L1.499 6.20429L1.49902 6.20426L1.49904 6.20424L1.49907 6.20422L1.49909 6.2042L1.49911 6.20417L1.49914 6.20415L1.49916 6.20413L1.49918 6.2041L1.49921 6.20408L1.49923 6.20406L1.49925 6.20404L1.49927 6.20401L1.4993 6.20399L1.49932 6.20397L1.49934 6.20394L1.49936 6.20392L1.49939 6.2039L1.49941 6.20388L1.49943 6.20385L1.49946 6.20383L1.49948 6.20381L1.4995 6.20379L1.49952 6.20376L1.49955 6.20374L1.49957 6.20372L1.49959 6.2037L1.49961 6.20367L1.49963 6.20365L1.49966 6.20363L1.49968 6.20361L1.4997 6.20358L1.49972 6.20356L1.49975 6.20354L1.49977 6.20352L1.49979 6.2035L1.49981 6.20347L1.49983 6.20345L1.49986 6.20343L1.49988 6.20341L1.4999 6.20339L1.49992 6.20336L1.49994 6.20334L1.49997 6.20332L1.49999 6.2033L1.50001 6.20328L1.50003 6.20326L1.50005 6.20323L1.50007 6.20321L1.5001 6.20319L1.50012 6.20317L1.50014 6.20315L1.50016 6.20313L1.50018 6.2031L1.5002 6.20308L1.50023 6.20306L1.50025 6.20304L1.50027 6.20302L1.50029 6.203L1.50031 6.20298L1.50033 6.20295L1.50035 6.20293L1.50037 6.20291L1.5004 6.20289L1.50042 6.20287L1.50044 6.20285L1.50046 6.20283L1.50048 6.20281L1.5005 6.20279L1.50052 6.20277L1.50054 6.20274L1.50056 6.20272L1.50058 6.2027L1.5006 6.20268L1.50062 6.20266L1.50065 6.20264L1.50067 6.20262L1.50069 6.2026L1.50071 6.20258L1.50073 6.20256L1.50075 6.20254L1.50077 6.20252L1.50079 6.2025L1.50081 6.20248L1.50083 6.20246L1.50085 6.20244L1.50087 6.20242L1.50089 6.2024L1.50091 6.20238L1.50093 6.20236L1.50095 6.20234L1.50097 6.20232L1.50099 6.2023L1.50101 6.20228L1.50103 6.20226L1.50105 6.20224L1.50107 6.20222L1.50109 6.2022L1.50111 6.20218L1.50113 6.20216L1.50115 6.20214L1.50117 6.20212L1.50118 6.2021L1.5012 6.20208L1.50122 6.20206L1.50124 6.20204L1.50126 6.20202L1.50128 6.20201L1.5013 6.20199L1.50132 6.20197L1.50134 6.20195L1.50136 6.20193L1.50138 6.20191L1.50139 6.20189L1.50141 6.20187L1.50143 6.20185L1.50145 6.20184L1.50147 6.20182L1.50149 6.2018L1.50151 6.20178L1.50152 6.20176L1.50154 6.20174L1.50156 6.20173L1.50158 6.20171L1.5016 6.20169L1.50162 6.20167L1.50163 6.20165L1.50165 6.20163L1.50167 6.20162L1.50169 6.2016L1.50171 6.20158L1.50172 6.20156L1.50174 6.20155L1.50176 6.20153L1.50178 6.20151L1.50179 6.20149L1.50181 6.20147L1.86235 5.86216H12.2821L12.5296 6.12774C12.5327 6.13186 12.5357 6.13494 12.538 6.13704C12.5393 6.13831 12.5407 6.1395 12.542 6.1405L12.5421 6.14075L12.5485 6.14681C12.7458 6.3336 12.8588 6.594 12.8588 6.86464V9.14365V9.19365H12.8588C12.8309 9.47091 12.594 9.6872 12.3098 9.68481ZM12.3094 9.73481H1.69059H12.3094ZM3.04125 2.95684C3.04126 2.95681 3.04127 2.95677 3.04129 2.95674C3.12227 2.74175 3.32717 2.60249 3.55523 2.60249H10.6215C10.8493 2.60249 11.0544 2.74424 11.1355 2.95684C11.1355 2.9569 11.1356 2.95696 11.1356 2.95703L11.9723 5.20967H11.4433C11.2674 4.16955 10.2902 3.45693 9.2413 3.61352C8.4078 3.73618 7.74972 4.38229 7.60922 5.20967H2.20448L3.04125 2.95684ZM9.79076 4.26992C10.2705 4.37203 10.6499 4.73614 10.7738 5.20967H8.27295C8.44494 4.54512 9.11149 4.12791 9.79076 4.26992ZM2.97208 10.8506C2.96944 11.1545 2.7239 11.3975 2.41987 11.3975H1.69059C1.38655 11.3975 1.14102 11.1545 1.13838 10.8506V10.2137C1.30115 10.2974 1.49697 10.3373 1.69059 10.3373H2.97208V10.8506ZM12.8616 10.8506C12.8589 11.1545 12.6134 11.3975 12.3094 11.3975H11.5801C11.2762 11.3975 11.0305 11.1519 11.0279 10.8506V10.3373H12.3094C12.503 10.3373 12.6988 10.2974 12.8616 10.2137V10.8506Z" fill="#353454" stroke="#353454" stroke-width="0.1"/>
<path d="M3.94874 6.91026H1.70515C1.54062 6.91026 1.40601 7.04487 1.40601 7.2094V8.76496C1.40601 8.92949 1.54062 9.0641 1.70515 9.0641H3.94874C4.11327 9.0641 4.24789 8.92949 4.24789 8.76496V7.2094C4.24789 7.04487 4.11327 6.91026 3.94874 6.91026ZM3.6496 8.46581H2.0043V7.50855H3.6496V8.46581Z" fill="#353454"/>
<path d="M12.2949 6.91026H10.0513C9.88681 6.91026 9.7522 7.04487 9.7522 7.2094V8.76496C9.7522 8.92949 9.88681 9.0641 10.0513 9.0641H12.2949C12.4595 9.0641 12.5941 8.92949 12.5941 8.76496V7.2094C12.5941 7.04487 12.4595 6.91026 12.2949 6.91026ZM11.9958 8.46581H10.3505V7.50855H11.9958V8.46581Z" fill="#353454"/>
</svg>
